<?xml version="1.0" encoding="UTF-8"?>
<svg width="3600pt" height="3600pt" version="1.1" viewBox="0 0 3600 3600" xmlns="http://www.w3.org/2000/svg">
 <path d="m2118.3 1250.7-643.81 787.77 87.02 87.02 787.77-643.81 657.99-657.99-230.98-230.98zm-1294.6-657.97 656.09 656.09 178.56 218.45-170.12 208.16-239.4-195.66-656.09-656.09zm-386.36 75.559 230.96-230.96-104.64-104.64c-6.6562-6.6562-15.414-9.9883-24.188-9.9883-8.7734 0-17.535 3.3281-24.191 9.9883l-182.58 182.58c-6.6562 6.6562-9.9883 15.414-9.9883 24.191 0 8.7734 3.332 17.535 9.9883 24.188zm1845.2 1562.4-51.664 51.664 282.76 231.11zm-222.68-88.117-86.496-70.695 107.55-87.898 61.852 75.684zm-710.64-297.04-248.88-203.41-923.06-923.06c-49.582-49.582-74.379-114.6-74.379-179.59 0-64.992 24.797-130 74.379-179.59l182.58-182.58c49.586-49.586 114.6-74.379 179.59-74.379 64.992 0 130.01 24.797 179.59 74.379l923.05 923.06 158.07 193.38 159.64-195.34 921.1-921.1c49.605-49.602 114.61-74.406 179.61-74.406s130.01 24.809 179.61 74.406l182.55 182.55c49.605 49.605 74.406 114.61 74.406 179.61s-24.805 130.01-74.406 179.61l-921.1 921.1-251.02 205.14 452.12 553.23 527.09 527.09c20.5-6.6641 41.844-9.9961 63.191-9.9961 51.871 0 103.9 19.91 143.82 59.734h0.42969l0.089844 0.085937v0.42969c19.504 19.605 34.191 42.023 44.047 65.797 10.492 25.32 15.754 51.895 15.754 78.082 0 25.957-5.2656 52.402-15.754 77.723v0.42969c-10.086 24.34-24.785 46.895-44.047 66.156l-173.25 173.25c-39.832 39.836-92.051 59.754-144.27 59.754-51.902 0-103.98-19.914-143.91-59.754h-0.42969c-19.086-19.086-33.758-41.785-43.98-66.535-10.492-25.406-15.727-51.863-15.727-77.77 0-20.871 3.4023-42.109 10.223-62.887l-525.51-525.51-600.64-490.93-598.37 489.03-527.11 527.11c6.6523 20.488 9.9766 41.82 9.9766 63.148 0 52.227-19.93 104.46-59.789 144.32-39.855 39.859-92.09 59.789-144.32 59.789-52.227 0-104.46-19.93-144.32-59.789l-173.21-173.21c-39.855-39.855-59.789-92.094-59.789-144.32 0-52.223 19.934-104.46 59.789-144.32 39.859-39.855 92.094-59.789 144.32-59.789 21.328 0 42.66 3.3281 63.148 9.9766l527.11-527.11zm1813.4-1177.2-230.98-230.98 104.62-104.62c6.6758-6.6758 15.441-10.016 24.211-10.016 8.7734 0 17.539 3.3398 24.211 10.016l182.55 182.55c6.6758 6.6758 10.016 15.441 10.016 24.215 0 8.7695-3.3398 17.535-10.016 24.211zm-1828 1541.2-249.39 305.16 305.16-249.39z" fill="#810a25" fill-rule="evenodd"/>
</svg>
